Coordinates
version=1
nRows=27
nColumns=12
inDegrees=yes

Units are S.I. units (second, meters, Newtons, ...)
Angles are in degrees

endheader
time	SC_y	SC_z	SC_x	AC_y	AC_z	AC_x	GH_y	GH_z	GH_yy	EL_x	PS_y
       0.0              -57.23          24.18          74.68          58.75         -15.76          -16.2          11.53          50.01          120.5          69.89          30.58
   0.02948              -57.23          24.18          74.68          58.75         -15.76          -16.2          11.55           50.0          120.5          69.89          30.58
   0.05895              -57.22          24.18          74.67          58.75         -15.76         -16.19          11.58          49.99          120.5          69.89          30.58
   0.08843              -57.22          24.18          74.67          58.76         -15.76         -16.19          11.61          49.98          120.5          69.89          30.58
    0.1179              -57.21          24.18          74.67          58.76         -15.75         -16.18          11.64          49.97          120.5          69.89          30.58
    0.1474              -57.21          24.18          74.66          58.76         -15.75         -16.18          11.67          49.96          120.5          69.89          30.58
    0.1769               -57.2          24.18          74.66          58.76         -15.75         -16.17           11.7          49.95          120.5          69.89          30.59
    0.2063              -57.19          24.18          74.66          58.76         -15.75         -16.16          11.73          49.93          120.5          69.89          30.59
    0.2358              -57.19          24.18          74.65          58.76         -15.74         -16.15          11.77          49.92          120.5          69.88          30.59
    0.2653              -57.18          24.18          74.65          58.76         -15.74         -16.15          11.81           49.9          120.5          69.88          30.59
    0.2948              -57.17          24.18          74.65          58.76         -15.74         -16.14          11.85          49.89          120.5          69.88          30.59
    0.3242              -57.16          24.18          74.64          58.77         -15.73         -16.13           11.9          49.87          120.5          69.88          30.59
    0.3537              -57.15          24.18          74.64          58.77         -15.73         -16.12          11.95          49.85          120.5          69.88           30.6
    0.3832              -57.14          24.18          74.63          58.77         -15.72         -16.11          12.01          49.83          120.6          69.87           30.6
    0.4127              -57.13          24.18          74.62          58.77         -15.72         -16.09          12.06          49.81          120.6          69.87           30.6
    0.4421              -57.12          24.19          74.62          58.77         -15.71         -16.08          12.13          49.79          120.6          69.87          30.61
    0.4716              -57.11          24.19          74.61          58.77         -15.71         -16.07           12.2          49.76          120.6          69.86          30.61
    0.5011              -57.09          24.19           74.6          58.78          -15.7         -16.05          12.27          49.74          120.6          69.86          30.61
    0.5306              -57.08          24.19          74.59          58.78         -15.69         -16.03          12.35          49.71          120.6          69.86          30.62
    0.5601              -57.06          24.19          74.58          58.78         -15.69         -16.01          12.44          49.67          120.6          69.85          30.62
    0.5895              -57.04          24.19          74.57          58.79         -15.68         -15.99          12.54          49.64          120.7          69.85          30.62
     0.619              -57.02          24.19          74.56          58.79         -15.67         -15.97          12.65           49.6          120.7          69.84          30.63
    0.6485               -57.0          24.19          74.55          58.79         -15.66         -15.95          12.77          49.55          120.7          69.84          30.64
     0.678              -56.97          24.19          74.54           58.8         -15.65         -15.92           12.9          49.51          120.7          69.83          30.64
    0.7074              -56.94          24.19          74.52           58.8         -15.64         -15.89          13.05          49.45          120.8          69.83          30.65
    0.7369              -56.91           24.2           74.5          58.81         -15.62         -15.85          13.22          49.39          120.8          69.82          30.66
    0.7664              -56.88           24.2          74.48          58.81         -15.61         -15.82           13.4          49.32          120.8          69.81          30.66
